<svg xmlns="http://www.w3.org/2000/svg" viewBox="0 0 224 224" fill="none" aria-hidden="true">
<g clip-path="url(#clip-pat-2-6)">
<path d="M224 0H0V224H224V0Z" fill="#E95444"/>
<path d="M52.5 14V52.5H14V14H52.5Z" fill="black" fill-opacity="0.2"/>
<path d="M105 14V52.5H66.5V14H105Z" fill="black" fill-opacity="0.2"/>
<path d="M157.5 14V52.5H119V14H157.5Z" fill="black" fill-opacity="0.2"/>
<path d="M212 12H169.5V54.5H212V12Z" fill="#F2EEE2"/>
<path d="M52.5 66.5V105H14V66.5H52.5Z" fill="black" fill-opacity="0.2"/>
<path d="M107 64.5H64.5V107H107V64.5Z" fill="#F2EEE2" fill-opacity="0.2"/>
<path d="M157.5 66.5V105H119V66.5H157.5Z" fill="black" fill-opacity="0.2"/>
<path d="M210 66.5V105H171.5V66.5H210Z" fill="black" fill-opacity="0.2"/>
<path d="M52.5 119V157.5H14V119H52.5Z" fill="black" fill-opacity="0.2"/>
<path d="M105 119V157.5H66.5V119H105Z" fill="black" fill-opacity="0.2"/>
<path d="M157.5 119V157.5H119V119H157.5Z" fill="black" fill-opacity="0.2"/>
<path d="M210 119V157.5H171.5V119H210Z" fill="black" fill-opacity="0.2"/>
<path d="M54.5 169.5H12V212H54.5V169.5Z" fill="#F2EEE2" fill-opacity="0.7"/>
<path d="M105 171.5V210H66.5V171.5H105Z" fill="black" fill-opacity="0.2"/>
<path d="M157.5 171.5V210H119V171.5H157.5Z" fill="black" fill-opacity="0.2"/>
<path d="M210 171.5V210H171.5V171.5H210Z" fill="black" fill-opacity="0.2"/>
</g>
<defs>
<clipPath id="clip-pat-2-6">
<rect width="224" height="224" fill="white"/>
</clipPath>
</defs>
</svg>
