<svg xmlns="http://www.w3.org/2000/svg" viewBox="0 0 224 224" fill="none" aria-hidden="true">
<g clip-path="url(#clip-pat-3-3)">
<path d="M224 0H0V224H224V0Z" fill="#B15556"/>
<path d="M191.25 65V159H97.25V65H191.25Z" stroke="black" stroke-opacity="0.15" stroke-width="2"/>
<path d="M182.25 74V150H106.25V74H182.25Z" stroke="black" stroke-opacity="0.3" stroke-width="4"/>
<path d="M1.5 108.5V115.5H-7.5V108.5H1.5Z" stroke="#F2EEE2" stroke-opacity="0.3"/>
<path fill-rule="evenodd" clip-rule="evenodd" d="M9.5 108H19.5V116H9.5V108Z" fill="#F2EEE2" fill-opacity="0.3"/>
<path fill-rule="evenodd" clip-rule="evenodd" d="M27 108H37V116H27V108Z" fill="#F2EEE2" fill-opacity="0.5"/>
<path fill-rule="evenodd" clip-rule="evenodd" d="M44.5 108H54.5V116H44.5V108Z" fill="#F2EEE2" fill-opacity="0.8"/>
<path d="M72 108H62V116H72V108Z" fill="#F2EEE2"/>
<path d="M144 108H80V116H144V108Z" fill="#F2EEE2"/>
<path d="M165.5 90.75H123V133.25H165.5V90.75Z" fill="#F2EEE2"/>
</g>
<defs>
<clipPath id="clip-pat-3-3">
<rect width="224" height="224" fill="white"/>
</clipPath>
</defs>
</svg>
